<svg xmlns="http://www.w3.org/2000/svg" width="204" height="204"><path fill="#050B58" d="M69.063 23.063C73.587 24.506 73.587 24.506 75 27c-.125 3.563-.125 3.563-1 7l-3 2c-.25 3.084-.25 3.084 0 6l2-1.75c10.927-8.196 22.724-9.104 36-8.25 7.311 1.225 15.645 3.645 21 9v-4l-2.062-1.875C126 33 126 33 126.125 29.875 127 27 127 27 129 25c3.103-.33 5.158-.505 7.875 1.125 1.63 2.717 1.455 4.772 1.125 7.875l-2 2c-.518 5.377-.71 11.87 1 17l2.25.875c4.285 1.753 5.827 5.04 7.75 9.125 1.947 5.602 2.23 10.223 1 16h-2l-.562 2.688c-1.691 3.895-3.25 4.809-6.7 7.023-2.616 1.94-4.018 4.56-5.738 7.289-3.4 3-3.4 3-6 3v2l3 1a96 96 0 0 1 3 3l1.648 1.184c5.254 3.815 6.922 8.063 9.165 14.046 1.454 3.392 3.458 5.328 6.187 7.77 3.885 6.297 3.17 10.98 2 18l.125 3.063c-.147 3.445-1.16 5.154-3.125 7.937-2.937-.375-2.937-.375-6-1l-1-2a78 78 0 0 0-5-2v-5l-1.875-.812C133 145 133 145 131 142c-.414-2.7-.414-2.7-.625-5.687l-.227-3.012L130 131c-2.414 5.395-2.475 10.342-1 16 1.102 1.718 1.102 1.718 2.5 3.125 3.326 3.825 3.183 5.881 3.5 10.875.56 4.007 1.799 6.606 4 10 1.478 2.957 1.06 5.742 1 9-4.56 2.23-8.832 2.495-13.812 2.75l-2.33.168c-5.905.329-11.786.18-16.842-3.273-1.312-2.124-1.352-3.473-1.266-5.958l.078-2.417c.212-2.794.692-5.511 1.172-8.27l-.062-3.375c.072-4.21.927-7.581 2.062-11.625h-9l.438 3.063L101 155l.625 3.625C102 162 102 162 101.438 164.5c-.614 3.507.553 6.117 1.562 9.5.305 5.39.305 5.39-1 8-4.909 1.741-10.367 1.184-15.5 1.188l-3.168.037-3.05.005-2.78.013c-2.62-.254-4.252-.915-6.502-2.243-.236-4.49-.373-7.176 1.5-11.312 1.499-3.685 1.6-5.388 1.438-9.25-.16-5.104.9-7.346 4.062-11.438 2.593-6.544 2.193-12.42 0-19l-.078 2.922-.172 3.828-.14 3.797c-.698 3.95-1.674 4.879-4.61 7.453-1.278 3.635-1.278 3.635-2 7h-3l-1 4c-3.134.348-4.52.383-7.031-1.621-4.33-5.231-5.67-12.692-6.407-19.316.515-3.604 1.452-6.013 3.438-9.063l2.063-1c2.2-.868 2.2-.868 2.937-3.5l1-3.5c2.019-6.377 3.92-10.556 9.316-14.617C74.876 104.28 76.315 101.83 78 99l-2.187-.625C71.655 96.342 69.086 93.172 67 89l-3.375-1.687c-3.282-1.837-4.874-3.6-6.125-7.274C55.525 71.983 55.515 64.69 59 57c1.863-2.148 3.612-3.39 6-5 1.48-2.962 1.353-5.835 1.563-9.125l.253-3.883L67 36l-1.937-.937C63 34 63 34 62 33c-.398-3.585-.401-5.398 1.625-8.437C66 23 66 23 69.063 23.063"/><path fill="#28268E" d="M69.063 23.063C73.587 24.506 73.587 24.506 75 27c-.125 3.563-.125 3.563-1 7l-3 2c-.25 3.084-.25 3.084 0 6l2-1.75c10.927-8.196 22.724-9.104 36-8.25 7.311 1.225 15.645 3.645 21 9v-4l-2.062-1.875C126 33 126 33 126.125 29.875 127 27 127 27 129 25c3.103-.33 5.158-.505 7.875 1.125 1.63 2.717 1.455 4.772 1.125 7.875l-2 2c-.518 5.377-.71 11.87 1 17l2.25.875c4.285 1.753 5.827 5.04 7.75 9.125 1.947 5.602 2.23 10.223 1 16h-2l-.562 2.688c-1.691 3.895-3.25 4.809-6.7 7.023-2.616 1.94-4.018 4.56-5.738 7.289-3.4 3-3.4 3-6 3v2l3 1a71 71 0 0 1 3 3 422 422 0 0 0 5.477 4.598C140 111 140 111 141 113c.04 2.333.043 4.667 0 7-2.74.222-4.44.348-6.812-1.125-1.68-2.65-1.393-4.807-1.188-7.875l-2 1v-4h-2l-.06 1.68c-.096 2.524-.205 5.047-.315 7.57-.03.873-.062 1.745-.094 2.645l-.117 2.558-.095 2.349c-.355 2.448-1.023 4.097-2.319 6.198-2.125 1.25-2.125 1.25-4 2v2l2 1c-1 3-1 3-4 5h-4v-2h-5c1-3 1-3 2.625-4.375L115 133c-.315-1.67-.653-3.336-1-5q-.098-3.406-.062-6.812l.027-3.52L114 115l-3-1 1-4h2v-2l2.375-1.375c2.749-1.702 3.504-2.67 4.625-5.625h-2l-.75 1.875c-1.456 2.476-2.628 3.076-5.25 4.125l1-3 2-1v-4l-3-1-1-3-2 1c-1.874.07-3.75.084-5.625.063l-3.04-.028L99 96l-1 4-4-2 1-2-3 1c-6.36.454-6.36.454-8.937-1.375C82 94 82 94 82 92l-2.187-.875L72 88v-3h-2l-1-28-1 4-4-1v3l-1.937 1.125c-2.527 2.297-2.41 3.187-2.688 6.5l-.102 2.414L59 75l-2 1c-2.254-4.508-.174-11.036.688-15.812C59.403 56.022 61.417 54.668 65 52c1.48-2.962 1.353-5.835 1.563-9.125l.253-3.883L67 36l-1.937-.937C63 34 63 34 62 33c-.398-3.585-.401-5.398 1.625-8.437C66 23 66 23 69.063 23.063"/><path fill="#7F99FC" d="M131.938 24.688C135 25 135 25 136.875 26.125c1.63 2.717 1.455 4.772 1.125 7.875l-2 2c-.518 5.377-.71 11.87 1 17l2.25.875c4.283 1.752 5.83 5.04 7.75 9.125 1.785 5.215 2.391 9.575 1 15h-3l-1 2c-1.206-4.672-1.094-9.215-1-14h-2l-2-8v7c-6.809-.935-6.809-.935-9.375-1.812-4.357-.312-7.971 1.532-11.625 3.812-1.863 2.6-1.863 2.6-3 5h-3l1-18-10-1v-2l-3.312.188L96 51c-.43-.501-.859-1.003-1.3-1.52-2.677-2.33-5.13-1.58-8.575-1.355-6.57.176-6.57.176-9.156-1.227C75.625 45.5 75.625 45.5 74 43c.604-2.716 1.3-4.495 3.598-6.152 11.224-5.914 25.19-6.71 37.402-3.598 5.372 1.71 10.96 3.71 15 7.75v-4l-2.062-1.875C126 33 126 33 126.125 29.875c1.16-3.812 1.796-4.76 5.813-5.187"/><path fill="#48154B" d="M138 56c2.354 2.55 2.983 3.71 3.188 7.25L141 66h2l2 12 3 1h-2l-.562 2.688c-1.691 3.895-3.25 4.809-6.7 7.023-2.616 1.94-4.018 4.56-5.738 7.289-3.4 3-3.4 3-6 3v2l3 1a71 71 0 0 1 3 3 422 422 0 0 0 5.477 4.598C140 111 140 111 141 113c.04 2.333.043 4.667 0 7-2.74.222-4.44.348-6.812-1.125-1.68-2.65-1.393-4.807-1.188-7.875l-2 1v-4h-2l-.06 1.68c-.096 2.524-.205 5.047-.315 7.57l-.094 2.645-.117 2.558-.095 2.349c-.355 2.448-1.023 4.097-2.319 6.198-2.125 1.25-2.125 1.25-4 2v2l2 1c-1 3-1 3-4 5h-4v-2h-5c1-3 1-3 2.625-4.375L115 133c-.315-1.67-.653-3.336-1-5q-.098-3.406-.062-6.812l.027-3.52L114 115l-3-1 1-4h2v-2l2.375-1.375c2.749-1.702 3.504-2.67 4.625-5.625h-2l-.75 1.875c-1.456 2.476-2.628 3.076-5.25 4.125l1-3 2-1v-4l-3-1c.313-1.937.313-1.937 1-4l3-1v-2h3l-1.094-1.652C115.465 83.755 113.958 79.55 115 73c.931-3.788 1.68-6.068 4.922-8.355 5.403-2.73 9.22-2.923 15.078-1.645l2-4v6h2z"/><path fill="#0F0554" d="M79 124c2 1 2 1 2.922 3.3 2.15 7.824 2.015 13.841.078 21.7l2.52.586 3.293.789 3.269.773C94 152 94 152 97 154l2-7h12c.293 6.35-.11 10.34-3 16h-1c-.226-5.419.533-9.775 2-15h-9l.438 3.063L101 155l.625 3.625C102 162 102 162 101.438 164.5c-.614 3.507.553 6.117 1.562 9.5.305 5.39.305 5.39-1 8-4.909 1.741-10.367 1.184-15.5 1.188l-3.168.037-3.05.005-2.78.013c-2.62-.254-4.252-.915-6.502-2.243-.236-4.49-.373-7.176 1.5-11.312 1.499-3.685 1.6-5.388 1.438-9.25-.16-5.104.9-7.346 4.062-11.438 2.27-5.729 1.94-10.09 1-16-.382-2.667-.713-5.32-1-8z"/><path fill="#220742" d="M129 108h2l1 3 2-2-.293 6.055L134 117c2.62 1.746 4.038 2.387 7 3l1-4 .7 1.574c2.2 4.705 4.549 7.773 8.3 11.426 3.05 5.664 2.018 10.894 1 17l.125 3.063c-.147 3.445-1.16 5.154-3.125 7.937-2.937-.375-2.937-.375-6-1l-1-2a78 78 0 0 0-5-2v-5l-1.875-.812C133 145 133 145 131 142c-.414-2.7-.414-2.7-.625-5.687l-.227-3.012L130 131l-1.102 1.828c-3.058 4.862-5.59 8.575-10.898 11.172-2.875.25-2.875.25-5 0l-1-4h-4v-5l8-4c-1.186 3.375-2.276 5.647-5 8h5v2c4.811-1.526 4.811-1.526 8-5l-3-1c.813-1.937.813-1.937 2-4l3-1c.878-2.635 1.26-4.715 1.535-7.45l.264-2.568.263-2.67.276-2.705q.335-3.303.662-6.607"/><path fill="#514978" d="m82.438 59.875 3.433-.008c2.607.11 4.642.455 7.129 1.133l.26 1.68q.586 3.786 1.177 7.57l.409 2.645.4 2.558.365 2.349c.342 2.203.342 2.203 1.042 4.295C97 84 97 84 95.313 87L93 90l-1.687 2.5c-2.82 1.83-3.596 1.564-6.813.938-3.434-.945-5.772-2.114-8.5-4.438-2.147-.705-2.147-.705-4-1v-3h-2a888 888 0 0 1-.187-10.312l-.077-2.96-.029-2.841-.048-2.619C70.076 63.493 70.783 62.67 73 61c3.345-1.115 5.918-1.133 9.438-1.125"/><path fill="#030E4D" d="M130.188 148.438c2.66 2.293 3.607 4.25 4.812 7.562a59 59 0 0 1-.187 6.95c.243 2.665 1.212 3.33 3.187 5.05 2.134 4.044 2.177 7.476 2 12-4.56 2.23-8.832 2.495-13.812 2.75l-2.33.168c-5.907.329-11.777.174-16.842-3.266-1.326-2.156-1.35-3.571-1.266-6.09.015-.761.03-1.523.047-2.308.196-2.18.609-4.15 1.203-6.254l1.75 1.063c2.143 1.088 2.143 1.088 4.188.812 2.271-.848 2.271-.848 4.562-2.937C120 162 120 162 124 162l-1-3-2-1c.125-3.312.125-3.312 1-7 2.885-2.116 4.593-3.281 8.188-2.562"/><path fill="#3A85EE" d="M92 33v2l3.938-.187c5.8-.019 10.899 1.605 16.062 4.187v2h-2v2l2.75.813c3.02 1.103 4.95 1.973 7.25 4.187 1.133 3.022 1 5.797 1 9h2v4h6c-2.153 2.153-3.633 2.73-6.437 3.813-4.05 1.717-5.566 3.193-7.563 7.187h-3l1-18-10-1v-2l-3.312.188L96 51c-.43-.501-.859-1.003-1.3-1.52-2.677-2.33-5.13-1.58-8.575-1.355-6.57.176-6.57.176-9.156-1.227C75.625 45.5 75.625 45.5 74 43c.63-2.831 1.324-4.547 3.773-6.187C82.626 34.359 86.515 33 92 33"/><path fill="#0B1F73" d="M86 109h28l-2 2v3l2 1 1 17-8 4-2-3c-2.656-.583-2.656-.583-5.625-.687l-3.04-.2L94 132l-2 5-5-1 1-8h-2l.254-3.14.308-4.11.17-2.066c.262-3.592.153-6.143-.732-9.684"/><path fill="#0D0342" d="M94 132c1.77-.108 3.54-.186 5.313-.25l2.988-.14c2.699.39 2.699.39 4.554 2.156C108 136 108 136 108 140h4l1 3c5.3-.416 8.17-1.276 12-5l3-4 1 14-6 3c-1.45 3.57-1.45 3.57-2 7l3 1v3l-3.312 1.313c-2.33.977-3.6 1.596-5.376 3.437L114 168c-2.974-.27-3.854-.854-6-3-.345-4.053-.302-5.548 2-9 .454-2.28.454-2.28.625-4.687l.227-2.45L111 147l-2.309.14c-8.858.31-14.458-1.29-21.754-6.202L85 139v-3h7z"/><path fill="#091E67" d="M68 55c2 2 2 2 2.227 4.797l-.032 3.523-.02 3.809-.05 3.996q-.016 2.01-.027 4.02Q70.062 80.072 70 85h2l2 3c1.883 1.108 1.883 1.108 4 2l4 2v2l3 1v2l10-1-1 3H84v3h-3l-1 4-4 1 2 4h-3l.938 2.25c.871 2.257 1.539 4.395 2.062 6.75-3.767 0-4.912-.235-8-2v3l-5-1v3l-3 1c2.411-8.22 5.213-13.57 12-19a106 106 0 0 0 4-6l-2.187-.625C71.655 96.342 69.086 93.172 67 89l-3.375-1.562c-3.414-1.83-4.373-3.528-5.562-7.188-.38-1.41-.743-2.825-1.063-4.25l1-1c.243-2.255.383-4.51.523-6.773C59.09 65.58 59.87 64.627 62 63h2v-3l4 1z"/><path fill="#0B0858" d="M59 127c6.207.214 10.647 1.94 16 5l2-4c1.494 2.988.995 5.563.813 8.875l-.168 3.742c-.739 3.875-1.761 4.838-4.645 7.383-1.278 3.635-1.278 3.635-2 7h-3l-1 4c-3.134.348-4.52.383-7.031-1.621-4.33-5.231-5.67-12.692-6.407-19.316.648-4.532 2.203-7.828 5.438-11.063"/><path fill="#2A44AE" d="M69.063 23.063C73.587 24.506 73.587 24.506 75 27c-.125 3.563-.125 3.563-1 7l-3 2c-.25 3.084-.25 3.084 0 6l3-3 2 1v4l1 3 3.395-.07q2.208-.029 4.418-.055c.737-.017 1.475-.034 2.236-.05 3.863-.036 5.66-.019 8.951 2.175v2h7v1c-21.595 4.43-21.595 4.43-31 0v9c-2-1-2-1-3-4l-1 4-4-1v3l-1.937 1.125c-2.527 2.297-2.41 3.187-2.688 6.5l-.102 2.414L59 75l-2 1c-2.254-4.508-.174-11.036.688-15.812C59.403 56.022 61.417 54.668 65 52c1.48-2.962 1.353-5.835 1.563-9.125l.253-3.883L67 36l-1.937-.937C63 34 63 34 62 33c-.398-3.585-.401-5.398 1.625-8.437C66 23 66 23 69.063 23.063"/><path fill="#F4641F" d="M124 102c6.547 1.693 11.337 4.018 16 9 1.478 2.957 1.06 5.742 1 9-2.74.222-4.44.348-6.812-1.125-1.68-2.65-1.393-4.807-1.188-7.875l-2 1v-4h-2l-.06 1.68c-.096 2.524-.205 5.047-.315 7.57l-.094 2.645-.117 2.558-.095 2.349c-.355 2.448-1.023 4.097-2.319 6.198-2.125 1.25-2.125 1.25-4 2v2l2 1c-1 3-1 3-4 5h-4v-2h-5c1-3 1-3 2.5-4.375 1.933-2.094 2.125-3.847 2.5-6.625l4-1c.167-4.921.248-8.503-2-13h-2c.188-2.312.188-2.312 1-5a99 99 0 0 1 5-3c1.169-2.03 1.169-2.03 2-4"/><path fill="#E48B99" d="M131.938 24.688C135 25 135 25 136.875 26.125c1.63 2.717 1.455 4.772 1.125 7.875l-2 2c-.518 5.377-.71 11.87 1 17l2.25.875c4.283 1.752 5.83 5.04 7.75 9.125 1.785 5.215 2.391 9.575 1 15h-3l-1 2c-1.206-4.672-1.094-9.215-1-14h-2l-2-8v7l-5-2 1-11c-2.584-1.292-5.1-2.504-7.75-3.625L124 47c1.625-.687 1.625-.687 4-1 3.25 1.438 3.25 1.438 6 3l-1.437-2.062C131 44 131 44 130.563 40.438c-.226-3.52-.226-3.52-2.688-5.5L126 33c.192-4.811.715-7.757 5.938-8.312"/><path fill="#280D48" d="m130 128 2.313 1.063c2.735 1.26 2.735 1.26 5.687-.063l1 4h4c3.524 6.637 4.72 12.513 5 20h2l1-7h1c.326 4.675-.294 7.167-3 11-2.937-.375-2.937-.375-6-1l-1-2a78 78 0 0 0-5-2v-5l-1.875-.812C133 145 133 145 131 142a107 107 0 0 1-.625-7.187l-.227-3.856z"/><path fill="#822F4E" d="M136 59h1c.029 4.437.047 8.875.063 13.313l.025 3.826.01 3.662.016 3.38C137 86 137 86 136 89l-3-1c.875-7.625.875-7.625 2-11l-2.937-.812L129 75l-1-3h-6c-.88 2.881-1.238 4.428-.062 7.25 3.144 2.668 5.99 2.483 10.062 2.75-1.875 3.875-1.875 3.875-3 5-1.52.072-3.042.084-4.562.063l-2.504-.028L120 87c-2.672-4.564-3.556-7.72-3-13 1.54-4.542 3.057-8.152 7-11 3.935-.914 7.152-1.385 11 0z"/><path fill="#5CA2FB" d="M92 33v2l3.938-.187c5.8-.019 10.899 1.605 16.062 4.187v2h-2v2l2.75.813c3.02 1.103 4.95 1.973 7.25 4.187.75 2.188.75 2.188 1 4l-4 2v-6c-10.212-2.412-20.561-2.611-31-3v-4h2v-4h-5l1-3c2.821-1.07 4.905-1 8-1"/><path fill="#100149" d="M94 132c1.77-.108 3.54-.186 5.313-.25l2.988-.14c2.699.39 2.699.39 4.554 2.156C108 136 108 136 108 140h4l1 3 3 2c-6.243 2.848-12.997 3.164-19.605 1.242-4.249-1.807-8.107-3.954-11.395-7.242v-3h7z"/><path fill="#11FBF6" d="M83 64c2.956 2.317 3.888 4.104 4.352 7.824.151 5.614.185 9.573-3.352 14.176-3.187.813-3.187.813-6 1-4.432-5.29-5.286-8.792-5.227-15.55.29-3.135 1.21-5.046 3.227-7.45 2.792-1.396 4.061-.98 7 0"/><path fill="#022D8C" d="M79 124c2 1 2 1 2.957 3.23 2.426 8.387 2.167 15.552-.957 23.77a2892 2892 0 0 1-4 4c-.689 2.571-.689 2.571-.75 5.25l-.172 2.703L76 165l1.813-1.5c4.696-2.21 9.08-2.202 14.187-1.5 2.524 1.07 3.923 2.148 6 4v1l-2.375.25c-2.772.478-2.772.478-3.937 2.813L91 172v-2H79l-1 4h-6v6h-1c-.293-4.786.252-7.702 2.348-11.98.845-2.618.705-4.84.59-7.583-.16-5.103.9-7.345 4.062-11.437 2.27-5.729 1.94-10.09 1-16-.382-2.667-.713-5.32-1-8z"/><path fill="#8F1F3D" d="m131 89 3 1v3l-3 1-1 2h-2l1 3h-2v2l3 1v2l-6-2-.687 2.313c-1.596 3.266-3.247 3.879-6.313 5.687-.878 2.085-.878 2.085-1 4h2c3.489 4.294 3.269 7.719 3 13l-5 1-1 3c-1.14-3.422-1.098-6.087-1.062-9.687l.027-3.575L114 115l-3-1 1-4h2v-2l2.375-1.375c2.749-1.702 3.504-2.67 4.625-5.625h-2l-.75 1.875c-1.456 2.476-2.628 3.076-5.25 4.125l1-3 2-1v-6h9v-4c2.813-2.312 2.813-2.312 6-4"/><path fill="#B32F35" d="M125 151c5.625-.25 5.625-.25 9 2 .442 2.698.77 5.287 1 8 .56 4.007 1.799 6.606 4 10 1.478 2.957 1.06 5.742 1 9l-4-2v-1l-7-1v-2h-2q-.252-2.937-.5-5.875l-.281-3.305c-.125-1.603-.219-3.212-.219-4.82a357 357 0 0 0-.5-4.625l-.281-2.477z"/><path fill="#034EA4" d="M105.203 109.691c2.287-.003 4.521.094 6.797.309v4l2 1c.218 5.439.104 9.87-2 15h-8l-1-7h-2c-1.845-3.69-1.311-7.045-.062-10.875C103 110 103 110 105.203 109.691"/><path fill="#020015" d="m95.418 100.902 3.799.01 3.97.025q2.004.009 4.006.014 4.904.018 9.807.049c-.998 2.993-1.752 3.948-4 6 3.524-2.546 3.524-2.546 6-6h2c-.562 3.262-1.414 4.911-4 7-7.871 2.624-18.552 2.3-26-1.375-3.78-2.183-3.78-2.183-5-4.625 3.357-1.12 5.882-1.114 9.418-1.098"/><path fill="#190330" d="M101 173v5h2l-1 4c-5.107 1.5-10.283 1.184-15.562 1.188l-3.194.037-3.06.005-2.796.013C75 183 75 183 72 181l1-6h19v1l6 1v-3c2-1 2-1 3-1"/><path fill="#1C1A8D" d="M59 127c6.13.208 9.94 1.559 15 5 2.68 4.019 2.156 6.242 2 11l-2-2c-2.197-.677-2.197-.677-4.625-1.125l-2.477-.508L65 139v-2l-6-1-.25 1.875C58 140 58 140 55.938 141.25L54 142c-.315-5.258.267-8.48 3-13z"/><path fill="#AB8EE1" d="M110 35c7.651.023 13.44.258 19.414 5.332C134 45.155 134 45.155 134 49l-5-1c3.056 2.588 3.056 2.588 7 3-.52 4.38-1.057 8.688-2 13-1.945-.695-1.945-.695-4-2-.617-2.242-.617-2.242-.875-4.875-.63-4.425-.63-4.425-4.125-7.312L122 48l-.75-3.437c-1.501-4.279-2.44-4.56-6.375-6.5A155 155 0 0 0 110 36z"/><path fill="#06002A" d="M108 172h2v3l1.828-.035 2.422-.028 2.39-.035c2.36.098 2.36.098 4.454.66 2.949.677 5.153-.498 7.906-1.562v2l3.313-.312L136 176c1.938 2.5 1.938 2.5 3 5-4.24 1.155-8.379 1.42-12.75 1.688l-2.344.181c-6.004.368-11.424-.128-16.906-2.869z"/><path fill="#F66B25" d="M121 107c0 2.621-.313 4.51-1 7l2.438.375L125 115c1.607 3.215 1.057 6.436 1 10h-3l-1 3 3 1-1.5 1.875c-1.692 1.964-1.692 1.964-1.5 4.125l2 1c-1 3-1 3-4 5h-4v-2h-5c1-3 1-3 2.5-4.375 1.933-2.094 2.125-3.847 2.5-6.625l4-1c.167-4.921.248-8.503-2-13h-2c.25-2.375.25-2.375 1-5 2.063-1.312 2.063-1.312 4-2"/><path fill="#050433" d="M68 55c2 2 2 2 2.227 4.89l-.032 3.65-.02 3.944-.05 4.141q-.016 2.082-.027 4.164A1994 1994 0 0 1 70 86c-3.375-.312-3.375-.312-7-1-2.68-4.019-2.156-6.242-2-11l2-1c.47-3.046.47-3.046.625-6.562l.227-3.63L64 60l4 1z"/><path fill="#B6343C" d="M149 126c2.692 4.736 4.668 8.388 4 14l-1 2c-.2 1.496-.363 2.997-.5 4.5-.389 4.278-.389 4.278-1.5 6.5h-2l-.332-2.195c-.9-5.484-1.965-9.89-4.668-14.805v-3h-4l-1-4c3.833-2.706 6.325-3.326 11-3"/><path fill="#EF4B07" d="M85 61c3.877 2.262 6.433 4.865 8.438 8.875 1.011 5.62 1.489 9.426-1.313 14.563C90 87 90 87 88 88c-2 .04-4 .043-6 0v-2l3-2c1.97-5.912 2.104-12.66-.562-18.312-2.459-2.069-2.459-2.069-6.188-1.5L75 65v-2c3.804-2.536 5.485-2.602 10-2"/><path fill="#212D9B" d="M69.063 23.063C73.587 24.506 73.587 24.506 75 27c-.125 3.563-.125 3.563-1 7l-3 2c-.173 2.292.067 4.425.285 6.71C71 45 71 45 67 49V36l-4-2c-1-1-1-1-1.312-3.812C62 27 62 27 63.625 24.563 66 23 66 23 69.063 23.063"/><path fill="#4B1368" d="M119 65h2l-.656 1.723C117.752 73.91 117.076 78.689 120 86h11v4c-3.214 3-3.214 3-6 3v4l-12 1 1-4 3-1v-2h3l-1.094-1.652C115.495 83.804 113.876 79.51 115 73c.894-2.86 1.839-5.839 4-8"/><path fill="#100B5F" d="M93 167c3.125-.187 3.125-.187 6 0l1 7h-2v3h-7v-1l-3.937.063c-4.757.007-9.347-.464-14.063-1.063v6l-2-1 1-6h6l1-5c8.571-.143 8.571-.143 12 1z"/><path fill="#952C74" d="M125.063 70.938 128 71l.125 1.875L129 75c2.996 1.305 2.996 1.305 6 2l-1 11 2 1c-.299 3.588-.77 4.782-3.437 7.313C130 98 130 98 128 98v-2h2l1-3h3l-1-3-2-1c-.75-1.875-.75-1.875-1-4l2-3-3.75.313c-3.47 0-4.026-.122-6.812-2.5C120 77 120 77 120.188 74.25c1.168-3.237 1.168-3.237 4.874-3.312"/><path fill="#020013" d="M83 138c5 2 5 2 7.438 4 2.778 2.168 5.19 3.059 8.562 4l-1 8c-2.87 0-4.218-.341-6.812-1.375A187 187 0 0 0 81 149z"/><path fill="#02000F" d="M127 134c1.003 3.008 1.303 5.538 1.563 8.688l.253 3.011L129 148c-5.57 2.988-10.626 5-17 5l-1-7 2.012-.918c8.387-3.937 8.387-3.937 13.988-11.082"/><path fill="#AF5188" d="M131.938 24.688C135 25 135 25 136.875 26.125c1.63 2.717 1.455 4.772 1.125 7.875l-2 2c-.463 2.662-.463 2.662-.625 5.625l-.227 3.04L135 47c-1.969-1.285-1.969-1.285-4-3q-.509-3.498-1-7l-2.125-2.062L126 33c.192-4.811.715-7.757 5.938-8.312"/><path fill="#033883" d="M64 63v11h-2c-.426 5.195-.426 5.195 1.063 10 2.958 1.527 5.674 1.185 8.937 1l1 8h2l1 3c1.5 1.667 1.5 1.667 3 3-2.86-.084-4.546-.568-6.633-2.555C70.318 94.06 68.41 91.82 67 89l-3.375-1.562c-3.414-1.83-4.373-3.528-5.562-7.188-.38-1.41-.743-2.825-1.063-4.25l1-1c.243-2.255.383-4.51.523-6.773C59.211 65.015 60.571 63 64 63"/><path fill="#2F65D8" d="m74 39 2 1v4l1 3 3.395-.07q2.208-.029 4.418-.055c.737-.017 1.475-.034 2.236-.05 3.863-.036 5.66-.019 8.951 2.175v2h7v1H78l-2-5h-5v8l-1-2h-3c.483-5.15 3.336-10.336 7-14"/><path fill="#031065" d="M72 88c3.941.563 6.75 1.68 10 4v2l3 1v2l10-1-1 3H84v3h-3l-1 4h-5c.628-2.929 1.586-5.361 3-8l-3-2v-3h-2z"/><path fill="#020350" d="m112 94 1 4 4 1v2l-30 1v-2l-6-1v-1l17 1 1-4 2.59.035 3.347.028 3.34.035c2.637.215 2.637.215 3.723-1.098"/><path fill="#34208A" d="M130.313 148.688C132 150 132 150 133 152l-8-1q.425 2.19.875 4.375l.492 2.46c.5 2.352.5 2.352 2.633 4.165l-2 1v12l-3-1h2v-4h-7l1-8h4l-1-3-2-1c.125-3.312.125-3.312 1-7 4.642-3.404 4.642-3.404 8.313-2.312"/><path fill="#DC5770" d="M136 59h1c.029 4.437.047 8.875.063 13.313l.025 3.826.01 3.662.016 3.38C137 86 137 86 136 89l-3-1c.875-7.625.875-7.625 2-11l-1.937-.312L131 76c-.96-2.882-1.106-4.699-1.062-7.687l.027-2.45L130 64l5-1z"/><path fill="#381752" d="M94 74h1c2.575 8.805 2.575 8.805.375 13.375L93 90l-1.687 2.5c-2.761 1.79-3.472 1.624-6.626 1.063C79.986 92.278 76.768 90.045 73 87l1-4 2 3c2.741.738 2.741.738 5.875.938l3.18.34c3.023-.03 3.023-.03 5.25-1.977 1.802-2.446 2.421-4.083 2.945-7.051.15-.8.3-1.598.453-2.422z"/><path fill="#01021E" d="M65 120c4.297-.43 7.012-.414 10.375 2.313C78 125 78 125 79 128l-4 4-1.937-.812C69.088 129.646 65.05 128.324 61 127l2-4h2z"/><path fill="#030627" d="M59 146c8.571-.286 8.571-.286 12 2v7h-3l-1 4c-2.375.125-2.375.125-5 0-2.59-2.59-2.374-4.027-2.625-7.625l-.227-3.04z"/><path fill="#DA5664" d="m115 109 2 1-1 4h2c3.489 4.294 3.269 7.719 3 13l-5 1-1 3c-1.14-3.422-1.098-6.087-1.062-9.687l.027-3.575L114 115l-3-1c.313-1.937.313-1.937 1-4z"/><path fill="#424EC8" d="M110 53h5v2l3 1v8l2.125-1.5c3.246-1.694 5.268-1.752 8.875-1.5-2.153 2.153-3.633 2.73-6.437 3.813-4.05 1.717-5.566 3.193-7.563 7.187h-3l1-18z"/><path fill="#C7FCF6" d="M80.438 63.063c3.696 1.352 4.7 2.42 6.562 5.937.789 6.337 1.027 11.76-3 17-3.187.813-3.187.813-6 1l3-1c.785-3.731 1.139-7.384 1.25-11.187l.078-2.543c-.4-2.771-1.158-3.566-3.328-5.27-2.1-1.176-2.1-1.176-4-2 3-2 3-2 5.438-1.937"/><path fill="#93112A" d="M127 127h1c.458 5.72-.283 8.599-4 13-3.063 2.476-4.93 3.907-8.875 4.25L113 144l-1-4h-4v-5l8-4c-1.186 3.375-2.276 5.647-5 8h5v2c4.811-1.526 4.811-1.526 8-5l-3-1c.813-1.937.813-1.937 2-4l3-1z"/><path fill="#4E93F8" d="M89 36h11v3l-8 2 2.3.113 3.013.2 2.988.175C103 42 103 42 106 45H86v-4h2z"/><path fill="#18084F" d="M97 132c3.007-.334 5.102-.54 8 0 2 1.75 2 1.75 3 4v4h4l1 4-6-1-1-3-10-2-1-3z"/><path fill="#099FE1" d="m105 114 6 1c2.215 5.045 1.85 7.86 0 13h-7l.063-2.375c.124-2.606.124-2.606-1.063-4.625.608-2.35 1.271-4.685 2-7"/><path fill="#1B0826" d="M129 174v2l3.313-.312L136 176c1.938 2.5 1.938 2.5 3 5-4.317 1.182-8.549 1.42-13 1.688l-2.445.181-2.368.143-2.144.14C117 183 117 183 113 181l11-1v-5c3-1 3-1 5-1"/><path fill="#9A76E8" d="M121 47c6.597 3.176 6.597 3.176 8.438 6.938.51 2.784.728 5.242.562 8.062l-7-1v-4h-2c-1.125-1.625-1.125-1.625-2-4 .875-3.25.875-3.25 2-6"/><path fill="#EF865E" d="M130 104c5.03 2.106 8 4.413 11 9 .313 3.875.313 3.875 0 7-2.74.222-4.44.348-6.812-1.125-1.68-2.65-1.393-4.807-1.188-7.875l-2 1z"/><path fill="#052070" d="M99 147h12c.293 6.35-.11 10.34-3 16h-1c-.226-5.419.533-9.775 2-15h-9l.438 3.063L101 155l.625 3.625C102 162 102 162 101.438 164.5c-.615 3.512.52 6.131 1.562 9.5v4h-2c-1.794-6.614-2.155-12.526-1.973-19.375.28-2.551.28-2.551-1.027-3.625.176-2.69.618-5.329 1-8"/><path fill="#F06C10" d="M123.313 128.313 125 129l-1.5 1.875c-1.692 1.964-1.692 1.964-1.5 4.125l2 1c-1 3-1 3-4 5h-4v-2h-5c1.016-3.049 1.774-3.867 4-6l1-2c4.25-3.101 4.25-3.101 7.313-2.687"/><path fill="#F99116" d="M85 61c2.703 1.586 2.703 1.586 5 4 .523 3.313.523 3.313.375 7l-.102 3.688C90.06 78.282 89.755 80.524 89 83h-3l.14-2.887.11-3.8.14-3.762C85.937 68.419 85.048 66.789 82 64c-3.7.064-3.7.064-7 1v-2c3.737-2.492 5.573-2.458 10-2"/><path fill="#5368EA" d="m110 47 7 1v6l4 1v2h2v5l-5 2-.586-6.152L117 56l-2-1v-2l-7 1v-5h2z"/><path fill="#0456B2" d="M59 127c2.729.033 5.297.564 8 1l2 5-1.898.078-2.477.172-2.46.14c-2.353.402-2.353.402-3.454 2.657L58 138h-2v4h-2c-.315-5.258.267-8.48 3-13z"/><path fill="#BF7DD8" d="m123 46 1.828.84 2.422 1.097 2.39 1.09A36.7 36.7 0 0 0 136 51c-.52 4.38-1.057 8.688-2 13-1.945-.695-1.945-.695-4-2-.617-2.242-.617-2.242-.875-4.875-.522-3.697-.522-3.697-2.578-6.672-1.82-1.223-1.82-1.223-4.547-2.453z"/><path fill="#010110" d="M76 106c2.647.265 3.766.756 5.621 2.691 1.727 2.891 1.686 4.72 1.567 8.059l-.083 2.984L83 122l-3 1-1.375-2.875c-1.427-3.128-1.427-3.128-3.625-5.125v-4l2-1v-2l-2-1z"/><path fill="#C52208" d="M117 76c1.813.25 1.813.25 4 1l1.25 2c2.09 2.39 2.876 2.384 5.938 2.75L132 82c-1.875 3.875-1.875 3.875-3 5-1.52.072-3.042.084-4.562.063l-2.504-.028L120 87c-2.153-3.858-3.393-6.551-3-11"/><path fill="#2430A6" d="M92 162c3.438 1.938 3.438 1.938 6 4v1l-2.375.25c-2.772.478-2.772.478-3.937 2.813L91 172v-2l-3.375-.375C84 169 84 169 82 167c.25-2.062.25-2.062 1-4 3.11-1.555 5.563-1.286 9-1"/><path fill="#2B0D6B" d="m130 128 2.313 1.063c2.735 1.26 2.735 1.26 5.687-.063l1 4h4v5l-9-1-1 7c-2.858-2.858-2.408-5.147-2.625-9.125l-.227-3.883z"/><path fill="#1C2F93" d="m72 52 1.758.219c4.443.528 8.758.896 13.242.781l1 5q-2.125.04-4.25.063l-2.39.035c-2.27-.094-4.181-.486-6.36-1.098h-1l-2 8-2-1 .438-1.5C71.22 59.022 71.587 55.54 72 52"/><path fill="#5483C0" d="M61 55h3c.353 5.379.353 5.379 0 8l-1.937 1.438c-2.27 1.358-2.27 1.358-2.481 3.699a120 120 0 0 0-.309 4.902L59 75l-2 1c-2.26-4.52-.32-11.259.938-16C59 57 59 57 61 55"/><path fill="#580F6A" d="M96.063 166.938 99 167l1 7h-2v3h-7q.212-2.22.438-4.437c.08-.824.162-1.648.246-2.497.51-3.33.888-3.057 4.379-3.129"/><path fill="#B23045" d="m126 162 4 1-2 7h2v5l7-1-.875-1.75L135 170l-1.187-2.062C133 166 133 166 134 163c4.877 5.69 6.295 9.473 6 17l-4-2v-1l-7-1v-2h-2z"/><path fill="#130E74" d="M118 163h2v6l6 1v4l-4 1v-2h-3v-2l-1.863-.402-2.45-.536-2.425-.527C110 169 110 169 107 168v-3l1.75 1.063c2.164 1.107 2.164 1.107 4.313.75 2.195-.921 3.307-2.11 4.937-3.813"/><path fill="#DB7A95" d="M124 46c3.719.507 6.735 1.116 10 3v-2h2l.188 2.875L137 53c2.463 1.453 2.463 1.453 5 2l-2 1c-1.075 3.01-1.088 5.829-1 9l-5-2 1-11c-2.584-1.292-5.1-2.504-7.75-3.625L124 47z"/><path fill="#370613" d="M127 134c1.003 3.008 1.303 5.538 1.563 8.688l.253 3.011L129 148c-3 2-3 2-7 2-.666-3.028-1.14-5.895-1-9 2.375-2.937 2.375-2.937 5-5z"/><path fill="#04014E" d="M79 155h7v4h4v2l-13 3c0-5.625 0-5.625 2-9"/><path fill="#6A99FA" d="M109.063 39.938 112 40l-2 1v2l2.75.813c3.02 1.103 4.95 1.973 7.25 4.187.75 2.188.75 2.188 1 4l-4 2v-6l-11-2-1-5c1-1 1-1 4.063-1.062"/><path fill="#040542" d="M83 113h1v17h-3l-1-5-1.625-.25c-3.248-1.026-5.663-2.716-8.375-4.75v-2a85 85 0 0 1 7 2l2-2 1 5 2-1c.467-2.126.467-2.126.625-4.562l.227-2.504z"/><path fill="#91A9D7" d="M93 32c9.508-.322 17.903-.238 27 3-3.319 1.022-6.183 1.044-9.64.879l-3.243-.147-3.367-.17-3.414-.158Q96.167 35.21 92 35z"/><path fill="#03367D" d="M79 124c2 1 2 1 2.922 3.336 1.918 7.04 3.047 13.733.078 20.664-2.09 1.305-2.09 1.305-4 2l1.063-3.437c1.19-4.755.71-8.778-.063-13.563-.383-2.667-.713-5.32-1-8z"/><path fill="#9C2E67" d="M140 60h1v6h2l2 12 3 1h-2l-2 6h-3z"/><path fill="#3966DE" d="M103 46c3 1.25 3 1.25 5 3v4h-5v-2l-3.312.25C96 51 96 51 94.062 49L93 47c3.194-1.597 6.525-1.372 10-1"/><path fill="#05041D" d="M100 178h3l-1 4c-3.208.954-6.082 1.116-9.422 1.098l-3.105-.01-3.223-.025-3.27-.014Q78.99 183.03 75 183l-1-2 26-1z"/><path fill="#552A6D" d="M130.313 148.688C132 150 132 150 133 152l-8-1q.425 2.19.875 4.375l.492 2.46c.5 2.352.5 2.352 2.633 4.165h-5l-1-3-2-1c.125-3.312.125-3.312 1-7 4.642-3.404 4.642-3.404 8.313-2.312"/><path fill="#450428" d="m144 142-4 4 1 1c.04 2 .043 4 0 6l-4-1v-5l-3-1v-4c3.283-1.642 6.425-.519 10 0"/><path fill="#0A1574" d="m101.504 94.902 3.058.035 3.067.028L110 95l1 5H99l-1-4c1-1 1-1 3.504-1.098"/><path fill="#3C28A0" d="M128 26c1 3 1 3 1 5l5 1-1 11h-2l-.25-2.75c-.455-3.343-.455-3.343-2.875-5.25L126 33c.313-5.312.313-5.312 2-7"/><path fill="#162175" d="m60.504 143.902 3.059.036 3.066.027L69 144l1 2 3 2-1 5h-1v-5c-3.674-1.176-7.17-1.074-11-1v9c-2-1-2-1-3-4-.125-3.625-.125-3.625 0-7 1-1 1-1 3.504-1.098"/><path fill="#030113" d="m135 121 3 1 1 3-1 1 2 2c-2.25 1.625-2.25 1.625-5 3-2.25-.562-2.25-.562-4-2-.75-2.125-.75-2.125-1-4 2.313-2.062 2.313-2.062 5-4"/><path fill="#6F2030" d="M141 116c2.523 3.124 4.273 6.38 6 10-3.312 1.125-3.312 1.125-7 2l-3-2 1-2c-.892-2.117-.892-2.117-2-4l3-1 2 1z"/><path fill="#34081A" d="M117 101c-.998 2.993-1.752 3.948-4 6 3.524-2.546 3.524-2.546 6-6h2c-.561 3.257-1.372 4.956-4 7-3.474 1.437-6.39.738-10 0 .688-2.375.688-2.375 2-5 2.915-1.57 4.68-2 8-2"/><path fill="#0E030A" d="M143 145h4l1 8h2l1-7h1c.326 4.675-.294 7.167-3 11l-5-1 .098-5.957c-.015-2.246-.015-2.246-1.098-5.043"/><path fill="#1B61B7" d="M106 112c3.375.547 5.082 1.055 8 3 .962 5.175-.023 10.181-2 15h-8v-2h7v-13l-5-2z"/><path fill="#100430" d="M69 67v19l-3-1a499 499 0 0 1-.687-7.312l-.221-2.092c-.422-5.135-.422-5.135 1.326-7.576C68 67 68 67 69 67"/><path fill="#11165C" d="M68 55c2 2 2 2 2.227 4.89-.01 1.204-.02 2.408-.032 3.65l-.02 3.944-.05 4.141q-.016 2.082-.027 4.164A1994 1994 0 0 1 70 86h-1l-1-21-4 1v-6l4 1z"/><path fill="#165BCD" d="m74 39 2 1v7h-5v8l-1-2h-3c.483-5.15 3.336-10.336 7-14"/><path fill="#EE652B" d="M131 165c3.809 1.445 5.297 3.326 7 7l-1 3h-7c0-9 0-9 1-10"/><path fill="#F07B70" d="m144 127 5 1c1.316 3.62 2 6.096 2 10-2.375-.187-2.375-.187-5-1-1.95-3.342-2.218-6.181-2-10"/><path fill="#024599" d="M70 85h2l1 8h2l1 3c1.5 1.667 1.5 1.667 3 3-2.813-.083-4.552-.618-6.703-2.45-4.317-4.649-4.317-4.649-4.234-8.425C69 86 69 86 70 85"/><path fill="#E7F5E4" d="M80.438 63.063C83.868 64.317 85.127 65.902 87 69c-.25 2.313-.25 2.313-1 4-3-1-3-1-4.937-3.437C79.086 67.107 77.875 66.13 75 65c3-2 3-2 5.438-1.937"/><path fill="#552C7A" d="M76 60q3.125-.04 6.25-.062l3.516-.036C89 60 89 60 93 61l1 12-2-4c-2.96-4.1-2.96-4.1-7-7-4.653-.305-4.653-.305-9 1z"/><path fill="#03145F" d="m81 149 5 2v2l2 1h-9l-1 11h-2a225 225 0 0 1-.187-4.75l-.106-2.672c.347-3.054 1.176-4.384 3.293-6.578h2z"/><path fill="#AF5284" d="M149 126v2l-5-1 1 2.75c1 3.25 1 3.25 1 7.25l-3-1v-3h-4l-1-4c3.833-2.706 6.325-3.326 11-3"/><path fill="#065ABF" d="M74 106v7l-1.937.875c-2.215.953-2.215.953-3.063 3.125h-3c.28-4.025.784-5.745 3.438-8.875C72 106 72 106 74 106"/><path fill="#E0511A" d="M131 65c3 1 3 1 4 3 .07 1.54.085 3.083.063 4.625l-.028 2.477L135 77c-1.937-.312-1.937-.312-4-1-1.165-3.494-1.136-6.337-1-10z"/><path fill="#7ACFDC" d="M123 73q2.514.428 5 1v6c-2.375.625-2.375.625-5 1l-2-2c.556-4.556.556-4.556 2-6"/><path fill="#28134A" d="M119 65h2l-.656 1.723C117.924 73.43 117.296 78.973 119 86c-2.389-1.717-3.829-3.066-4.371-6.023-.156-5.38.896-9.225 3.371-13.977z"/><path fill="#3A0448" d="M133 135c3.375.25 3.375.25 7 1 1.438 2.063 1.438 2.063 2 4-5.75 2-5.75 2-8 2l-1 3z"/><path fill="#9E2034" d="M121 100c5.625-.25 5.625-.25 9 2v2l-6-2-.5 2.313c-2.195 3.932-5.322 4.492-9.5 5.687v-2l2.375-1.312c3.042-1.956 3.615-3.29 4.625-6.688"/><path fill="#06318F" d="M99 110h4l-1 2c-1.287 3.86-1.138 6.942-1 11h2l1 7h5v1h-6c-3.988-7.05-4.488-12.986-4-21"/><path fill="#260A53" d="M94 74h1l2 10-3 2zm-1 12 2 2c-1.856 2.2-3.705 4.253-6 6-2.875-.125-2.875-.125-5-1l4-1v-2a105 105 0 0 1 5-4"/><path fill="#734C67" d="M125.063 70.938 128 71l1 4h2c.188 2.375.188 2.375 0 5-3 2-3 2-5.187 1.625L124 81l3-1v-6c-3.93.575-3.93.575-7 3 1.074-5.981 1.074-5.981 5.063-6.062"/><path fill="#8668DC" d="M121 51h3v7h5l1 4-7-1v-4h-2l-2-4z"/><path fill="#2D74ED" d="m76 38 2.813.5c3.143.577 3.143.577 6.187.5v3l-8 4-3-4z"/><path fill="#478BFB" d="M89 36h11v3l-12 2z"/><path fill="#E94808" d="m116 131 3 2c.25 2.563.25 2.563 0 5l-1 1 2 2h-4v-2h-5c1.016-3.049 1.774-3.867 4-6z"/><path fill="#A85796" d="M112 110c3.317 2.737 4.884 4.087 5.438 8.438-.423 3.44-1.18 6.34-2.438 9.562h-1v-13l-3-1z"/><path fill="#52121C" d="M129 108h2l1 3 2-2c-.488 4.29-1.247 6.696-4 10a143 143 0 0 0-2 4c-.103-5.126-.036-9.95 1-15"/><path fill="#2B59CC" d="m77 49 3.813-.062 2.144-.036C85 49 85 49 88 50c2.566.227 5.117.416 7.688.563l2.126.13q2.593.158 5.186.307v1H78z"/><path fill="#060D37" d="m63 123 1 2c2.026.225 4.055.444 6.09.559C72 126 72 126 74 129l-1 2-12-4z"/><path fill="#040124" d="m95 105 12 1v2h6v1a901 901 0 0 1-7.812.125c-.738.017-1.476.034-2.237.05-3.863.036-5.66.019-8.951-2.175z"/><path fill="#235CA5" d="M64 63v6l-4-1v14l-2-1c-.687-2.5-.687-2.5-1-5l1-1c.243-2.255.383-4.51.523-6.773C59.211 65.015 60.571 63 64 63"/><path fill="#07398A" d="m66 50 1 3h3l-2 8-4-1v-5l-2-1z"/><path fill="#B94B5A" d="M137 109c2 1.563 2 1.563 4 4 .25 3.75.25 3.75 0 7-2.843.23-4.461.359-6.875-1.25C133 117 133 117 133.313 114.813L134 113v2l4 1z"/><path fill="#11105D" d="m74 88 8 4v2l3 1v2c-1.462-.229-2.92-.484-4.375-.75l-2.46-.422C76 95 76 95 74.71 93.11 74 91 74 91 74 88"/><path fill="#3A1E77" d="M93 66h3c.96 2.882 1.106 4.699 1.063 7.688l-.028 2.449L97 78l2 1-2 4c-2.36-3.54-2.586-5.991-3.125-10.187l-.508-3.856z"/><path fill="#DF98E3" d="M126 40c3.88 1.258 5.941 2.424 8 6v3c-7.065-2.041-7.065-2.041-9-5 .313-2.187.313-2.187 1-4"/><path fill="#9B1D32" d="M125 151h6l1 4-4 1 1 5-3-1z"/><path fill="#6E1A74" d="M131 86v4c-2.726 2.726-5.233 3.477-9 4l1-6c5.75-2 5.75-2 8-2"/><path fill="#06218F" d="M85 163h-2v2l3 1-3 1 1 2-8-1c3.715-6.586 3.715-6.586 9-5"/><path fill="#40084C" d="m106 135 2 1v4h4l1 4-6-1-1-3h-3c.375-1.937.375-1.937 1-4z"/><path fill="#1E369D" d="m67 35 3 1c.277 1.412.52 2.83.75 4.25l.422 2.39C71 45 71 45 67 49z"/><path fill="#033B94" d="m80 149 1 2-1.984 1.61c-2.592 3.073-2.438 4.683-2.266 8.64l.11 3.266L77 167h-3c-.082-1.895-.14-3.791-.187-5.687l-.106-3.2c.332-3.523 1.14-5.328 3.293-8.113z"/><path fill="#082384" d="M60 133h4v2l4 1v3h-3v-2l-6-1-.375 1.938L58 140l-2 1v-3h2l.438-1.937C59 134 59 134 60 133"/><path fill="#2831A9" d="M68 129c2.125.938 2.125.938 4 2v8h-3v-4l-5-1 4-2-2-2z"/><path fill="#0A1A6B" d="m130 128 5 2c0 3 0 3-1 5-.225 1.537-.408 3.08-.562 4.625l-.254 2.477L133 144c-2.858-2.858-2.408-5.147-2.625-9.125l-.227-3.883z"/><path fill="#030422" d="M76 106c3 1 3 1 4.125 2.938L81 111l1 2c.04 2 .043 4 0 6-1.708-1.634-2.935-2.87-4-5l-3 1v-4l2-1v-2l-2-1z"/><path fill="#A93648" d="m130 62 2 2h-2l1 11h-2l-1-3-3-1c1.625-6.75 1.625-6.75 5-9"/><path fill="#27349C" d="m87 53 1 5h-9l1-2-2-2c3.196-1.065 5.657-1.074 9-1"/><path fill="#5E5CD6" d="m118 54 3 1v2h2v5l-5 2z"/><path fill="#487CF0" d="M93.484 43.988q2.134.147 4.266.325l2.133.146c4.087.3 8.082.799 12.117 1.541l-2 1v2c-5.875-.875-5.875-.875-7-2a200 200 0 0 0-7.562-.562l-2.155-.131Q90.643 46.148 88 46c2-2 2-2 5.484-2.012"/><path fill="#5E76D8" d="M129 25h6l1 4-2 1-1 2c-1.937-.312-1.937-.312-4-1-1-3-1-3 0-6"/><path fill="#2C209A" d="M89 162c4.314.48 6.166 1.746 9 5-6.4 1.23-6.4 1.23-9.437.063L87 166z"/><path fill="#250A5F" d="M90 152c2 0 2 0 4.125 1.813C96 156 96 156 96 159h-2v2l-4-1a177 177 0 0 1-1-7z"/><path fill="#D73E42" d="M127 119h1c.286 8.571.286 8.571-2 12h-2v-2l-2-1 1-4h2z"/><path fill="#89172C" d="M116 97c5.538-.37 5.538-.37 7.875 1.5L125 100l-2.875.25L119 101c-1.167 1.917-1.167 1.917-2 4-2.125 1.25-2.125 1.25-4 2l1-3 2-1z"/><path fill="#C23D31" d="m94 168 3 1 1 8h-7l1-2h2z"/><path fill="#0F034D" d="m112 170 7 1v2h3v2l2 1c-2 1-2 1-5.437.25-4.727-1.659-4.727-1.659-6.563-4.25z"/><path fill="#482374" d="M113 124c1.765 3.088 2 4.233 2 8l-8 4-2-4c2.647-1.46 3.894-2 7-2z"/><path fill="#2A0255" d="M102 140h4l1 2c2.118.687 2.118.687 4.563 1.125l2.503.508L116 144c-2.147 2.147-3.078 2.543-6 3l-2-1v-2h-5v-2l-2-1z"/><path fill="#D27DB5" d="m140 56 4 1c1.354 2.709 1.065 5.01 1 8l-4 1z"/><path fill="#5AA2EA" d="M92 33v2h9v1l-18 1 1-3c2.821-1.07 4.905-1 8-1"/><path fill="#71111E" d="M127 174h2v2h7l2 4c-5.32.349-5.32.349-8 0-2-1.875-2-1.875-3-4z"/><path fill="#74588E" d="M127 127h1c.125 6.75.125 6.75-1 9h-5v-4l1.938-.812c2.393-1.075 2.393-1.075 3.062-4.188"/><path fill="#C09E59" d="m122 107 4 2-1 6-5-1c.875-4.75.875-4.75 2-7"/><path fill="#054EA7" d="M84 100v2h-3l-1 4h-5c.313-1.875.313-1.875 1-4 3.228-2.152 4.284-2.2 8-2"/><path fill="#BB3C78" d="M135 77h2q.039 2.156.063 4.313l.035 2.425C137 86 137 86 136 89l-3-1c.875-7.625.875-7.625 2-11"/><path fill="#D0B3F5" d="m110 35 12 1v3h3v2c-3.359-.76-6.521-1.87-9.75-3.062l-2.984-1.098L110 36z"/><path fill="#020426" d="m60 150 4 1 2 7c-1.666.043-3.334.04-5 0-1-1-1-1-1.062-4.562z"/><path fill="#DF95DD" d="m128 48 2.313 1.5c2.61 1.744 2.61 1.744 5.687 1.5.188 2.375.188 2.375 0 5l-3 2q-1.257-1.932-2.5-3.875l-1.406-2.18C128 50 128 50 128 48"/><path fill="#151477" d="M79 169c8.571-.143 8.571-.143 12 1v4h-4l-1-2c-4.094-1.088-4.094-1.088-8 0z"/><path fill="#134FBC" d="m59 127 8 1 2 5-7-1v-2l-3-1z"/><path fill="#040F57" d="m62 73 2 1c.414 2.504.414 2.504.625 5.563l.227 3.066L65 85l-3-1c-1.627-3.253-1.115-6.392-1-10z"/><path fill="#787BDD" d="M67 24c2.375-.125 2.375-.125 5 0 2 2 2 2 2 6l-3 1v-3l-5-1z"/><path fill="#02033E" d="M62 139.125C64 140 64 140 67 143h-9l-2 4c.367-2.717.727-4.61 2.313-6.875C60 139 60 139 62 139.125"/><path fill="#6F162F" d="M93 81h1c.364 4.485.364 4.485-1.164 6.648-2.528 1.862-4.29 1.718-7.398 1.665l-2.942-.012C80 89 80 89 78 87l2.047.14c5.624.368 5.624.368 10.516-2.015C92.018 83.074 92.018 83.074 93 81"/><path fill="#85150F" d="M117 76h2c1.604 3.508 2.22 6.144 2 10h8v1h-9c-2.153-3.858-3.393-6.551-3-11"/><path fill="#6092FB" d="M100 36c1.439.087 2.876.196 4.313.313l2.425.175C109 37 109 37 112 40l-12-1z"/><path fill="#6B1E2E" d="m150 141 2 1a764 764 0 0 1-.437 4.375l-.247 2.46C151 151 151 151 150 153h-2l-1-8h3z"/><path fill="#021D70" d="M77 128c1.503 3.007.917 5.611.688 8.938-.08 1.246-.158 2.493-.239 3.777C77 144 77 144 75 147h-2l1-1.5c1.774-4.436 1.51-8.973 0-13.5 1.438-2.187 1.438-2.187 3-4"/><path fill="#05072C" d="M65 120c6.523-.37 6.523-.37 8.938 1.5L75 123l-2 3-8-3z"/><path fill="#FB7E08" d="M121 115h4c1.607 3.215 1.057 6.436 1 10l-2-1v-4h-2z"/><path fill="#0D053C" d="m85 102 7 4v1c-7.75 1.125-7.75 1.125-10 0 1.875-3.875 1.875-3.875 3-5"/><path fill="#22106B" d="m118 169 8 1v4l-4 1v-2h-3z"/><path fill="#210A70" d="m65 139 9 1 1 4c-4 0-4 0-6-1v-2l-4-1z"/><path fill="#6F78F4" d="M112 46c2.813-.312 2.813-.312 6 0 1.875 2.5 1.875 2.5 3 5l-2 3h-2v-6l-5-1z"/><path fill="#EF4804" d="M133 155v7l-5-2v-4c3-1 3-1 5-1"/><path fill="#EE5209" d="M89 81h2l-.937 1.813C88.898 85.09 88.898 85.09 88 88h-6v-2c2.561-2.296 3.48-3 7-3z"/><path fill="#E46B2D" d="M85 61c1.938 1.5 1.938 1.5 3 3-3.747.964-6.25.79-10 0l-3 1v-2c3.695-2.463 5.633-2.39 10-2"/><path fill="#0B0654" d="M70 118a85 85 0 0 1 7 2l2-2-1 7a396 396 0 0 1-4-2.375c-.743-.44-1.485-.882-2.25-1.336L70 120z"/><path fill="#33064F" d="m112 94 1 4 4 1v2h-9l3-1-.062-2.437C111 95 111 95 112 94"/><path fill="#680D52" d="M123 93h2v4l-12 1v-2c.957-.2.957-.2 1.934-.402.826-.177 1.652-.354 2.504-.535l2.496-.528c2.043-.343 2.043-.343 3.066-1.535"/><path fill="#BE3943" d="m131 89 3 1v3c-2.647 1.46-3.894 2-7 2 .313-1.875.313-1.875 1-4z"/><path fill="#8CF3EB" d="M83 74h1l1 11c-3 2-3 2-5.187 1.625L78 86h3z"/><path fill="#642244" d="m121 65 4 1a105 105 0 0 1-4 5h-2v5h-2c1.75-7.625 1.75-7.625 4-11"/><path fill="#01001B" d="m108 177 1.61.96c2.935 1.277 5.452 1.457 8.64 1.665l3.266.227L124 180v1c-2.081.25-4.165.474-6.25.688l-3.516.386c-3.559-.081-4.716-.65-7.234-3.074z"/><path fill="#953375" d="m126 162 4 1-2 7h2v4h-3z"/><path fill="#520A4B" d="M121 154c2.438.75 2.438.75 5 2 .688 2 .688 2 1 4l2 2h-5l-1-3-2-1z"/><path fill="#020330" d="M111 148h1v5l4 1-2 3h-3l-1 3c-1.361-2.722-.704-4.183-.062-7.125l.59-2.758z"/><path fill="#031048" d="m65 149 2 1v9h-5l3-2-1-1c-.125-3-.125-3 0-6z"/><path fill="#831747" d="m115 131 1 2c-1.812 2-1.812 2-4 4h-3l-1 3v-5z"/><path fill="#ACF9FB" d="m106 115 4 1-1 5-4-1z"/><path fill="#891C36" d="m131 76 4 1c-.375 2.438-.375 2.438-1 5l-2 1c-2.125-.937-2.125-.937-4-2l3-1z"/><path fill="#F3806D" d="M144 69h2v8l2 1h-3l-1 2a491 491 0 0 1-.562-4.375l-.317-2.46C143 71 143 71 144 69"/><path fill="#0E1F74" d="m60 68 4 1v5h-2l-2 4z"/><path fill="#7D4B98" d="m137 53 5 2-2 1c-1.075 3.01-1.088 5.829-1 9h-2z"/><path fill="#154EB6" d="M128 26c1.103 3.308 2.05 6.646 3 10l-4-1c-.625-2.812-.625-2.812-1-6z"/><path fill="#01052A" d="m83 138 4 2-2 2 2 3h-4v5l-2-2c.242-2.383.242-2.383.875-5.125l.617-2.758z"/><path fill="#78194D" d="M143 136c2 1 2 1 3.125 3.375C147 142 147 142 147 145l-3-1 1-2h-4z"/><path fill="#037DBB" d="M87 110h5l1 4c-1.875.625-1.875.625-4 1l-2-2z"/><path fill="#0262B6" d="M70 85h2v8l-4-2c.875-4.875.875-4.875 2-6"/><path fill="#160217" d="m120 142 2 1c.594 2.649.742 5.292 1 8l-3-1v-4l-4-2c1.875-1.062 1.875-1.062 4-2"/><path fill="#100320" d="m135 121 3 1 1 3-1 1 2 2-3 1-3-2 2-4-2-1z"/><path fill="#0D1C62" d="M84 100h3c0 2 0 2-2.5 4.625L82 107l2 1-5-1 2-5h3z"/><path fill="#02287C" d="M72 88c2 1.813 2 1.813 4 4v3l6 1-4 2-3-2v-3h-2z"/><path fill="#C12206" d="M93 73h1c.417 6.051.104 9.172-4 14h-2l.938-1.812C90.102 82.91 90.102 82.91 91 80h2z"/><path fill="#AF5BA1" d="M140 60h1v6h2v8h-2c-.953-4.763-1.083-9.167-1-14"/><path fill="#919AFB" d="m117 40 4 1 1 6h-2l-1-2c-2.017-1.134-2.017-1.134-4-2z"/><path fill="#7E56B9" d="M133 36h2v11l-4-4h2z"/><path fill="#27044B" d="M92 152c1.875.625 1.875.625 4 2 1.313 3 1.313 3 2 6l-1 2h-3v-3h2c-.752-3.278-.752-3.278-4-5z"/><path fill="#031B58" d="m58 146 2 1v9l-2-1c-.45-1.812-.45-1.812-.687-4l-.262-2.187L57 147z"/><path fill="#031169" d="m59 136 6 1v2l-2.75.813c-2.965 1.083-4.867 2.17-7.25 4.187z"/><path fill="#1274E6" d="M61 55h3v7h-3c-.934-3.01-1.044-3.867 0-7"/><path fill="#3676E7" d="m87.48 44.926 2.707.386 2.731.364L95 46v1c-4.41 1.102-8.484 1.077-13 1 1.79-2.314 2.489-2.985 5.48-3.074"/><path fill="#031357" d="M82 173v2h-9v6l-2-1 1-6q1.935-.543 3.875-1.062l2.18-.598C80 172 80 172 82 173"/><path fill="#070442" d="m97 154 3 2c.393 4.24.325 7.367-2 11l-2-3h2c.08-3.522.04-6.62-1-10"/><path fill="#01023D" d="m85.688 159.938 2.449.027L90 160v1l-13 3 1-3c2.882-.96 4.699-1.106 7.688-1.062"/><path fill="#032B6C" d="M82 141c1.208 3.623.543 4.641-1 8h-3c.599-2.352 1.27-4.686 2-7z"/><path fill="#250343" d="m133 135 4 3-1 4h-2l-1 3z"/><path fill="#151E61" d="M127 134c1.005 3.015 1.103 5.042 1.063 8.188l-.028 2.73L128 147c-3.031-3.547-3.031-3.547-2.75-7.625C126 136 126 136 127 134"/><path fill="#604AB1" d="m141 127 2 1v5h-4l-1-4z"/><path fill="#FB7714" d="M121 107c0 3.106-.54 4.353-2 7h-3c.25-2.375.25-2.375 1-5 2.063-1.312 2.063-1.312 4-2"/><path fill="#520D5F" d="M122 92v3c-6.75 1.125-6.75 1.125-9 0 2.682-2.682 5.266-3 9-3"/><path fill="#722B82" d="M74 27h1l-1 7h-4v-6l4 2z"/><path fill="#02012F" d="m117 162 2 1c-2.312 2.5-2.312 2.5-5 5h-3v-3a101 101 0 0 1 6-3"/><path fill="#2A074F" d="M121 151c1.044 3.133.934 3.99 0 7l3 1v2h-4c-1.23-5.415-1.23-5.415-.062-8.375z"/><path fill="#190929" d="M124 139c1.11 2.073 1.974 3.886 2.5 6.188L127 147l2 1-4 1a544 544 0 0 1-1.062-4.437l-.598-2.497L123 140z"/><path fill="#FB791C" d="M147 132h3l1 6-4-1z"/><path fill="#8F4459" d="m130 104 5 2-3 6c-1.765-3.088-2-4.233-2-8"/><path fill="#F7D9C0" d="M146 67h2c.95 3.695.95 6.305 0 10h-2z"/><path fill="#0B0944" d="M65 64h3l1 3-5 5c-.125-5.75-.125-5.75 1-8"/><path fill="#0A0C6C" d="M65 31h4v4l-4 1c-.562-1.937-.562-1.937-1-4z"/><path fill="#2D042D" d="M124 175c1.875.25 1.875.25 4 1 1.25 2.063 1.25 2.063 2 4l-5-1z"/><path fill="#071D74" d="m107 165 1.625.938c2.773 1.24 5.375 1.653 8.375 2.062l-1 3-9-3z"/><path fill="#CE4560" d="m129 163 4 2-3 3 1 1c.04 1.666.043 3.334 0 5l-1-4h-2z"/><path fill="#02378B" d="M109 153h2c-.61 3.558-1.578 6.683-3 10h-1c-.25-6.625-.25-6.625 2-10"/><path fill="#1B0B46" d="M151 146h1c.326 4.675-.294 7.167-3 11l-4-1 2-1v-2h3z"/><path fill="#421B79" d="m138 130 1 3h4v5c-3-1-3-1-5-4z"/><path fill="#0B4BB2" d="M58 128q3.012.43 6 1l-2 1v2l2 1-5 1v-4l-2-1z"/><path fill="#460D62" d="m132 115 4 4-1 3-4-2z"/><path fill="#825FAA" d="M112 110c2.8 3.146 3.353 5.067 3.188 9.25l-.083 2.703L115 124h-1v-9l-3-1z"/><path fill="#254CA8" d="m112 110-1 3c-1.875.625-1.875.625-4 1l-3 1v-3c3.228-2.152 4.284-2.2 8-2"/><path fill="#543D8E" d="M129 61c-2.008 2.008-3.369 2.994-6 4-2.25-.375-2.25-.375-4-1 3.318-3.063 5.552-3.303 10-3"/><path fill="#2760E3" d="M81 42v2l-4 2-3-4c2.667-1.333 4.167-.671 7 0"/><path fill="#F78509" d="m132 168 2 1v4l4 1c-1 1-1 1-4.562 1.063L130 175l2-2c.167-2.584.167-2.584 0-5"/><path fill="#060C3C" d="M69 148h2v7h-3c-.043-2-.04-4 0-6z"/><path fill="#4C090E" d="M137 148h4v5l-4-1z"/><path fill="#24052C" d="m137 143 4 1v3c-1.875.625-1.875.625-4 1l-2-2z"/><path fill="#250F5E" d="m101 132 5 1v3h-2l-1 2z"/><path fill="#F1512A" d="M128 112c1 2 1 2 .063 5.125L127 120c-2-3-2-3-2-7z"/><path fill="#D85766" d="m115 109 2 1-1 4h2l-1 4v-3l-4-2v-3z"/><path fill="#A85689" d="M121 100c5.625-.25 5.625-.25 9 2v2l-9-3z"/><path fill="#411256" d="M94 74h1l2 10-3 2z"/><path fill="#1E3076" d="M70 79c2.797 2.068 3.027 3.144 3.688 6.688L74 89l-2-1v-3h-2z"/><path fill="#6D2562" d="M87 62c4.605 1.454 4.605 1.454 6.313 3.813.785 2.499.832 4.582.687 7.187l-.687-1.562C91.503 68.076 89.26 65.07 87 62"/><path fill="#073282" d="M63 25c2 3 2 3 1.625 6.188L64 34l-2-1c-.125-5.75-.125-5.75 1-8"/><path fill="#6141A8" d="M124 163h3v6h-4z"/><path fill="#BD4129" d="m119 76 2.25 2.375c2.294 2.19 3.872 3.452 6.75 4.625-2.984.249-4.649.19-7.312-1.25C119 80 119 80 119 76"/><path fill="#1037A4" d="M62 63h2v6l-4-1c.875-3.875.875-3.875 2-5"/><path fill="#821D48" d="M140 173v7l-4-2c0-2 0-2 1.438-3.625C139 173 139 173 140 173"/><path fill="#7A2F7B" d="M92 168h2v7h-3z"/><path fill="#3F1685" d="M92 163c4.875 1.75 4.875 1.75 6 4l-6 1z"/><path fill="#31003B" d="m108 143 8 1c-2.147 2.147-3.078 2.543-6 3l-2-1z"/><path fill="#EF4C1B" d="M123.25 128.313 125 129c-1 2-1 2-4.062 3.125L118 133l-1-2c3.446-3.077 3.446-3.077 6.25-2.687"/><path fill="#010333" d="m79 120 1 3 3-1v5h-2c-2-2-2-2-3-4z"/><path fill="#FCA915" d="m126 103 3 1-1 6c-1.562-1.25-1.562-1.25-3-3 .313-2.187.313-2.187 1-4"/><path fill="#612368" d="m131 93 4 1c-4.75 4-4.75 4-7 4v-2h2z"/><path fill="#3C1451" d="m137 83 5 4-6 3z"/><path fill="#3E0823" d="M116 75h1c2.429 7.429 2.429 7.429 1 11-2-2-2-2-2.195-4.164l.07-2.461.055-2.477z"/><path fill="#E18EDE" d="M140 56h2c.95 3.695.95 6.305 0 10h-1z"/><path fill="#6C5FD6" d="m120 55 1 2h2v5h-3z"/><path fill="#C586E0" d="M123 46c4.677 1.477 4.677 1.477 6.313 4.125L130 52c-3.375-1.186-5.647-2.276-8-5z"/></svg>